<svg width="132" height="150" viewBox="0 0 132 150" fill="none" xmlns="http://www.w3.org/2000/svg">
<path d="M84.3159 9.31579C84.3159 4.10526 80.0527 0 75.0001 0H37.4211C32.2106 0 28.1053 4.26316 28.1053 9.31579V28.1053H84.3159V9.31579V9.31579Z" fill="white"/>
<path d="M112.421 56.2106V28.1053C112.421 22.8948 108.158 18.7896 103.105 18.7896H93.7895V37.579H18.6316V18.7896H9.31579C4.10526 18.7896 0 23.0527 0 28.1053V131.211C0 136.421 4.26316 140.526 9.31579 140.526H18.6316H56.2105V71.8422V56.3685H77.3684H112.421V56.2106Z" fill="white"/>
<path d="M121.737 65.6842H74.8421C69.6316 65.6842 65.5263 69.9474 65.5263 75V140.684C65.5263 145.895 69.7895 150 74.8421 150H77.2105H93.6316H102.947H121.737C126.947 150 131.053 145.737 131.053 140.684V75C131.211 69.7895 126.947 65.6842 121.737 65.6842ZM121.737 131.211H74.8421V121.895H121.737V131.211ZM121.737 112.579H74.8421V103.263H121.737V112.579ZM121.737 93.7895H74.8421V84.4737H121.737V93.7895Z" fill="white"/>
</svg>
