<svg width="109" height="150" viewBox="0 0 109 150" fill="none" xmlns="http://www.w3.org/2000/svg">
<path fill-rule="evenodd" clip-rule="evenodd" d="M15.9179 57.3974C6.04183 67.2734 0 80.7514 0 95.7397C0 110.728 6.04183 124.322 15.9179 134.082C25.6778 143.958 39.2719 150 54.2603 150C69.2486 150 82.7266 143.958 92.6026 134.082C102.363 124.322 108.521 110.728 108.521 95.7397C108.521 80.7514 102.363 67.2734 92.6026 57.3974C89.9303 54.725 87.0256 52.4012 83.7723 50.3098V29.6282C83.7723 21.495 80.519 14.0589 75.1743 8.71418C69.8296 3.36948 62.3935 0 54.2603 0C46.127 0 38.6909 3.36948 33.3462 8.71418C28.0015 14.0589 24.6321 21.495 24.6321 29.6282V50.3098C21.495 52.4012 18.5902 54.725 15.9179 57.3974V57.3974ZM74.0124 45.1975C67.8544 42.8737 61.2316 41.5957 54.2603 41.5957C47.2889 41.5957 40.6661 42.8737 34.5081 45.1975V29.6282C34.5081 24.1673 36.7157 19.2874 40.3176 15.6855C43.9194 12.0837 48.7994 9.87607 54.2603 9.87607C59.605 9.87607 64.6011 12.0837 68.2029 15.6855C71.6886 19.2874 74.0124 24.1673 74.0124 29.6282V45.1975ZM49.2641 88.4198C49.2641 85.6313 51.4717 83.4237 54.2603 83.4237C56.9326 83.4237 59.1402 85.6313 59.1402 88.4198V103.176C59.1402 105.848 56.9326 108.056 54.2603 108.056C51.4717 108.056 49.2641 105.848 49.2641 103.176V88.4198Z" fill="#242424"/>
</svg>
