<svg width="149" height="150" viewBox="0 0 149 150" fill="none" xmlns="http://www.w3.org/2000/svg">
<path d="M141.221 74.5077C136.407 73.8512 132.031 77.3523 131.593 82.1663C130.062 95.0766 124.372 106.674 115.182 115.864C92.8626 138.184 56.3199 138.184 34.0004 115.864C32.9063 114.77 31.8122 113.676 30.937 112.582H35.3133C40.1273 112.582 44.0661 108.643 44.0661 103.829C44.0661 99.0153 40.1273 95.0766 35.3133 95.0766L2.27174 94.639L0.740014 128.775C0.521196 133.589 4.24111 137.746 9.05512 137.965C9.27393 137.965 9.27393 137.965 9.49275 137.965C14.0879 137.965 18.0267 134.245 18.2455 129.65L18.4643 125.055C19.3396 126.149 20.2149 127.243 21.3089 128.118C35.9698 142.779 55.2258 150 74.263 150C93.3002 150 112.775 142.779 127.217 128.118C139.252 116.083 146.692 100.985 148.661 84.1357C149.318 79.3217 146.035 74.9453 141.221 74.5077Z" fill="white"/>
<path d="M7.52333 74.9453C7.96097 74.9453 8.3986 74.9453 8.61742 74.9453C12.9938 74.9453 16.7137 71.663 17.3702 67.2867C19.1207 54.814 24.81 43.4354 33.7815 34.4639C56.101 12.1444 92.6437 12.1444 114.963 34.4639C115.838 35.3392 116.714 36.2144 117.589 37.3085H113.431C108.617 37.3085 104.679 41.2473 104.679 46.0613C104.679 50.8753 108.617 54.814 113.431 54.814L146.035 55.0328L147.567 20.8972C147.786 16.0831 144.066 11.9256 139.252 11.7068C134.438 11.488 130.28 15.2079 130.062 20.0219L129.843 24.8359C128.968 23.9606 128.311 23.0853 127.217 21.9912C97.8953 -7.33042 50.4117 -7.33042 21.0901 21.9912C9.4927 33.8074 2.27169 48.6871 0.083506 65.0985C-0.572949 69.9125 2.70933 74.2888 7.52333 74.9453Z" fill="white"/>
</svg>
